<?xml version="1.0" encoding="UTF-8"?>
<svg width="19px" height="18px" viewBox="0 0 19 18" version="1.1" xmlns="http://www.w3.org/2000/svg" xmlns:xlink="http://www.w3.org/1999/xlink">
    <!-- Generator: Sketch 64 (93537) - https://sketch.com -->
    <title>icon/采购管理</title>
    <desc>Created with Sketch.</desc>
    <g id="切图" stroke="none" stroke-width="1" fill="none" fill-rule="evenodd">
        <g transform="translate(-285.000000, -193.000000)" fill="#0060A0" id="icon/采购管理-蓝">
            <g transform="translate(285.750000, 193.000000)">
                <path d="M10.341748,0.365157 C10.976248,0.742437 11.266408,1.607157 11.011888,2.314377 C10.968148,2.436237 10.982548,2.513727 11.057968,2.616687 C12.052918,3.975957 13.043998,5.338287 14.030128,6.704217 C14.106088,6.809337 14.182588,6.843537 14.305978,6.844437 L15.374638,6.84408825 C15.730768,6.8459895 16.086358,6.854787 16.440058,6.885117 C17.071048,6.939207 17.515558,7.332867 17.737948,7.920567 C17.965378,8.521137 17.898058,9.110277 17.449048,9.593397 C17.257528,9.799497 16.983298,9.927207 16.754968,10.101447 C16.686748,10.153377 16.616728,10.235007 16.598008,10.314927 C16.167178,12.149307 15.743098,13.985127 15.318478,15.820857 C14.996188,17.214507 13.909888,18.081477 12.478978,18.083457 C11.474038,18.084897 10.469008,18.083727 9.463978,18.083727 C8.489008,18.083727 7.513318,18.060327 6.539158,18.089127 C5.000518,18.134577 3.812068,17.210097 3.481318,15.604317 C3.116998,13.835277 2.676988,12.081807 2.262628,10.323207 C2.242468,10.237167 2.169478,10.128357 2.093248,10.096407 C1.317808,9.771057 0.883828,9.020277 1.027198,8.225667 C1.172098,7.422777 1.854568,6.859467 2.721988,6.844167 C3.329308,6.833457 3.937078,6.847857 4.544308,6.835707 C4.636648,6.833907 4.759768,6.773247 4.814038,6.699537 C5.699278,5.498397 6.575608,4.290777 7.454188,3.084777 C7.476058,3.054717 7.499458,3.025647 7.522588,2.996577 C7.743448,2.720277 7.901308,2.479257 7.795648,2.051937 C7.631308,1.387017 7.903378,0.792297 8.481808,0.398187 C9.083008,-0.011673 9.722728,-0.002763 10.341748,0.365157 Z M15.475708,10.217007 L3.402928,10.217007 C3.402928,10.264437 3.398608,10.287747 3.403558,10.308897 C3.810808,12.068037 4.213108,13.828347 4.628998,15.585327 C4.841938,16.485057 5.468428,16.966107 6.390568,16.966647 C8.429518,16.9677626 10.468378,16.968627 12.507238,16.966107 C13.389328,16.965027 14.043538,16.429707 14.240368,15.569847 C14.560678,14.170977 14.886118,12.773367 15.209128,11.375127 C15.297238,10.993797 15.384718,10.612287 15.475708,10.217007 Z M6.537637,11.716767 C6.688387,12.113757 6.827257,12.515247 6.969457,12.915387 C7.223977,13.631427 7.483087,14.345937 7.728607,15.065037 C7.859557,15.448797 7.630237,15.800067 7.248817,15.831747 C6.991957,15.852987 6.765337,15.668307 6.651487,15.347277 C6.329917,14.441517 6.007357,13.536207 5.685967,12.630447 C5.601727,12.392937 5.519737,12.154617 5.468977,12.008907 C5.472217,11.626587 5.657167,11.404917 5.931397,11.351997 C6.164137,11.307177 6.442147,11.465127 6.537637,11.716767 Z M9.434323,11.3434104 C9.745003,11.343771 9.974143,11.595411 9.978103,11.959641 C9.983953,12.506481 9.979633,13.053321 9.979633,13.600161 L9.978823,13.600161 C9.978823,14.161941 9.984853,14.723811 9.976393,15.285501 C9.971893,15.581511 9.789013,15.775641 9.503443,15.824421 C9.265933,15.865011 9.006013,15.713541 8.919073,15.468291 C8.887573,15.379551 8.881723,15.278031 8.881453,15.182271 C8.878933,14.111181 8.878213,13.040001 8.880643,11.968821 C8.881453,11.594961 9.109153,11.342961 9.434323,11.3434104 Z M12.911788,11.352294 C13.210678,11.402874 13.391488,11.613204 13.3896127,11.973744 C13.383298,11.997864 13.367458,12.085884 13.337848,12.169134 C12.954988,13.244544 12.569878,14.319234 12.186118,15.394284 C12.060928,15.744924 11.764198,15.907464 11.453698,15.792984 C11.141128,15.677604 11.016568,15.367014 11.141578,15.017004 C11.528218,13.935204 11.914228,12.853134 12.300868,11.771334 C12.404998,11.480004 12.655288,11.308824 12.911788,11.352294 Z M2.704708,7.960707 C2.291698,7.964487 2.025208,8.310897 2.135278,8.682687 C2.214568,8.950347 2.435968,9.091737 2.781838,9.091827 C7.213348,9.092097 11.644858,9.092007 16.076368,9.091737 C16.136308,9.091737 16.197598,9.096147 16.256008,9.085707 C16.487488,9.044307 16.655608,8.922807 16.720318,8.687727 C16.830028,8.288307 16.556968,7.959627 16.111468,7.959357 L12.782278,7.9585695 L4.729258,7.958727 C4.054438,7.958727 3.379528,7.954227 2.704708,7.960707 Z M10.219348,3.280887 C10.181548,3.292317 10.153468,3.298797 10.126828,3.309057 C9.701308,3.474297 9.268948,3.524337 8.839288,3.340737 C8.692588,3.278187 8.620138,3.301767 8.529148,3.427857 C7.940278,4.244427 7.341958,5.053887 6.749578,5.867757 C6.523498,6.178167 6.304798,6.494067 6.069538,6.826257 L12.798838,6.826257 C11.926558,5.627277 11.074348,4.456017 10.219348,3.280887 Z M9.452818,1.209627 C9.135928,1.200267 8.867008,1.447947 8.859898,1.755747 C8.852698,2.062377 9.115768,2.338317 9.418168,2.341287 C9.735328,2.344437 10.000648,2.090277 9.99992946,1.783737 C9.999208,1.483407 9.746488,1.218267 9.452818,1.209627 Z" id="icon/采购管理"></path>
            </g>
        </g>
    </g>
</svg>